<svg width="52" height="51" viewBox="0 0 52 51" fill="none" xmlns="http://www.w3.org/2000/svg">
<rect x="10" y="1" width="40" height="40" rx="1" stroke="#BABABA" stroke-width="1.5"/>
<line x1="10" y1="20.25" x2="26" y2="20.25" stroke="#BABABA" stroke-width="1.5"/>
<line x1="10" y1="27.45" x2="21" y2="27.45" stroke="#BABABA" stroke-width="1.1"/>
<path d="M20.5 27C21 33.5 18.2738 36.0238 10 37" stroke="#BABABA"/>
<line x1="34.25" y1="11" x2="34.25" y2="1" stroke="#BABABA" stroke-width="1.5"/>
<line x1="25.25" y1="20.25" x2="25.25" y2="14.75" stroke="#BABABA" stroke-width="1.5" stroke-linecap="round"/>
<line x1="23.75" y1="14.25" x2="27.25" y2="14.25" stroke="#BABABA" stroke-width="1.5" stroke-linecap="round"/>
<line x1="0.75" y1="-0.75" x2="6.25" y2="-0.75" transform="matrix(0 1 1 0 26 1)" stroke="#BABABA" stroke-width="1.5" stroke-linecap="round"/>
<line x1="0.75" y1="-0.75" x2="4.25" y2="-0.75" transform="matrix(1 0 0 -1 23 7)" stroke="#BABABA" stroke-width="1.5" stroke-linecap="round"/>
<line x1="0.75" y1="-0.75" x2="6.25" y2="-0.75" transform="matrix(-1 0 0 1 50 26)" stroke="#BABABA" stroke-width="1.5" stroke-linecap="round"/>
<line x1="0.75" y1="-0.75" x2="4.25" y2="-0.75" transform="matrix(0 1 1 0 44 23)" stroke="#BABABA" stroke-width="1.5" stroke-linecap="round"/>
<line x1="0.75" y1="-0.75" x2="4.25" y2="-0.75" transform="matrix(-1 0 0 1 50 11)" stroke="#BABABA" stroke-width="1.5" stroke-linecap="round"/>
<line x1="0.75" y1="-0.75" x2="4.25" y2="-0.75" transform="matrix(0 1 1 0 45.7144 8)" stroke="#BABABA" stroke-width="1.5" stroke-linecap="round"/>
<line x1="34.75" y1="10.25" x2="38.25" y2="10.25" stroke="#BABABA" stroke-width="1.5" stroke-linecap="round"/>
<line x1="39.0356" y1="8.75" x2="39.0356" y2="12.25" stroke="#BABABA" stroke-width="1.5" stroke-linecap="round"/>
<line x1="30.75" y1="25" x2="30.75" y2="40" stroke="#BABABA" stroke-width="1.5"/>
<line x1="30.75" y1="25.25" x2="36.25" y2="25.25" stroke="#BABABA" stroke-width="1.5" stroke-linecap="round"/>
<line x1="0.75" y1="-0.75" x2="4.25" y2="-0.75" transform="matrix(0 -1 -1 0 36.2856 28)" stroke="#BABABA" stroke-width="1.5" stroke-linecap="round"/>
<path d="M4.35355 0.646447C4.15829 0.451184 3.84171 0.451184 3.64645 0.646447L0.464466 3.82843C0.269204 4.02369 0.269204 4.34027 0.464466 4.53553C0.659728 4.7308 0.976311 4.7308 1.17157 4.53553L4 1.70711L6.82843 4.53553C7.02369 4.7308 7.34027 4.7308 7.53553 4.53553C7.7308 4.34027 7.7308 4.02369 7.53553 3.82843L4.35355 0.646447ZM3.64645 44.3536C3.84171 44.5488 4.15829 44.5488 4.35356 44.3536L7.53554 41.1716C7.7308 40.9763 7.7308 40.6597 7.53554 40.4645C7.34027 40.2692 7.02369 40.2692 6.82843 40.4645L4 43.2929L1.17157 40.4645C0.976312 40.2692 0.65973 40.2692 0.464468 40.4645C0.269206 40.6597 0.269206 40.9763 0.464468 41.1716L3.64645 44.3536ZM3.5 1L3.5 44L4.5 44L4.5 1L3.5 1Z" fill="#BABABA"/>
<path d="M7.64645 46.6464C7.45118 46.8417 7.45118 47.1583 7.64645 47.3536L10.8284 50.5355C11.0237 50.7308 11.3403 50.7308 11.5355 50.5355C11.7308 50.3403 11.7308 50.0237 11.5355 49.8284L8.70711 47L11.5355 44.1716C11.7308 43.9763 11.7308 43.6597 11.5355 43.4645C11.3403 43.2692 11.0237 43.2692 10.8284 43.4645L7.64645 46.6464ZM51.3536 47.3536C51.5488 47.1583 51.5488 46.8417 51.3536 46.6464L48.1716 43.4645C47.9763 43.2692 47.6597 43.2692 47.4645 43.4645C47.2692 43.6597 47.2692 43.9763 47.4645 44.1716L50.2929 47L47.4645 49.8284C47.2692 50.0237 47.2692 50.3403 47.4645 50.5355C47.6597 50.7308 47.9763 50.7308 48.1716 50.5355L51.3536 47.3536ZM8 47.5H51V46.5H8V47.5Z" fill="#BABABA"/>
</svg>
